<?xml version="1.0" encoding="UTF-8"?>
<svg width="433px" height="496px" viewBox="0 0 433 496" version="1.1" xmlns="http://www.w3.org/2000/svg" xmlns:xlink="http://www.w3.org/1999/xlink">
    <!-- Generator: Sketch 59.1 (86144) - https://sketch.com -->
    <title>neo4j cc mark-dark</title>
    <desc>Created with Sketch.</desc>
    <defs>
        <path d="M412.8,219.8 C412.8,333.8 320.4,426.2 206.4,426.2 C92.4,426.2 0,333.8 0,219.8 C0,105.8 92.4,13.399919 206.4,13.399919 C320.4,13.3 412.8,105.8 412.8,219.8" id="path-1"></path>
        <filter x="-1.0%" y="-1.0%" width="103.9%" height="103.9%" filterUnits="objectBoundingBox" id="filter-2">
            <feOffset dx="4" dy="4" in="SourceAlpha" result="shadowOffsetOuter1"></feOffset>
            <feGaussianBlur stdDeviation="2" in="shadowOffsetOuter1" result="shadowBlurOuter1"></feGaussianBlur>
            <feColorMatrix values="0 0 0 0 1   0 0 0 0 1   0 0 0 0 1  0 0 0 0.5 0" type="matrix" in="shadowBlurOuter1"></feColorMatrix>
        </filter>
    </defs>
    <g id="neo4j-cc-mark-dark" stroke="none" stroke-width="1" fill="none" fill-rule="evenodd">
        <g id="globe" transform="translate(2.000000, 4.000000)">
            <g id="Path">
                <use fill="black" fill-opacity="1" filter="url(#filter-2)" xlink:href="#path-1"></use>
                <use fill="#008CC1" fill-rule="evenodd" xlink:href="#path-1"></use>
            </g>
            <path d="M91.5,152.1 C91.5,161.2 84.1,168.6 75,168.6 C65.9,168.6 58.5,161.2 58.5,152.1 C58.5,143 65.9,135.6 75,135.6 C84.2,135.6 91.5,143 91.5,152.1" id="Path" fill="#FFFFFF"></path>
            <path d="M94.3,197.4 C94.3,206.5 86.9,213.9 77.8,213.9 C68.7,213.9 61.3,206.5 61.3,197.4 C61.3,188.3 68.7,180.9 77.8,180.9 C86.9,180.9 94.3,188.2 94.3,197.4" id="Path" fill="#FFFFFF"></path>
            <path d="M104.4,245.4 C104.4,254.5 97,261.9 87.9,261.9 C78.8,261.9 71.4,254.5 71.4,245.4 C71.4,236.3 78.8,228.9 87.9,228.9 C97,228.8 104.4,236.2 104.4,245.4" id="Path" fill="#FFFFFF"></path>
            <path d="M127,288.4 C127,297.5 119.6,304.9 110.5,304.9 C101.4,304.9 94,297.5 94,288.4 C94,279.3 101.4,271.9 110.5,271.9 C119.6,271.8 127,279.2 127,288.4" id="Path" fill="#FFFFFF"></path>
            <path d="M303.7,348.5 C303.7,357.6 296.3,365 287.2,365 C278.1,365 270.7,357.6 270.7,348.5 C270.7,339.4 278.1,332 287.2,332 C296.3,332 303.7,339.4 303.7,348.5" id="Path" fill="#FFFFFF"></path>
            <path d="M333.7,313 C333.7,322.1 326.3,329.5 317.2,329.5 C308.1,329.5 300.7,322.1 300.7,313 C300.7,303.9 308.1,296.5 317.2,296.5 C326.3,296.5 333.7,303.9 333.7,313" id="Path" fill="#FFFFFF"></path>
            <path d="M246.7,62 C246.7,71.1 239.3,78.5 230.2,78.5 C221.1,78.5 213.7,71.1 213.7,62 C213.7,52.9 221.1,45.5 230.2,45.5 C239.3,45.5 246.7,52.9 246.7,62" id="Path" fill="#FFFFFF"></path>
            <path d="M203.3,46.8 C203.3,55.9 195.9,63.3 186.8,63.3 C177.7,63.3 170.3,55.9 170.3,46.8 C170.3,37.7 177.7,30.3 186.8,30.3 C195.9,30.3 203.3,37.7 203.3,46.8" id="Path" fill="#FFFFFF"></path>
            <circle id="Oval" stroke="#FFFFFF" stroke-width="3.5" fill="#66B245" cx="320.3" cy="170.6" r="110"></circle>
            <circle id="Oval" stroke="#FFFFFF" stroke-width="3.5" fill="#66B245" cx="169.6" cy="394.9" r="90"></circle>
            <circle id="Oval" stroke="#FFFFFF" stroke-width="3.5" fill="#66B245" cx="95.5" cy="60" r="60"></circle>
        </g>
        <path d="M230.5,155 C233.75,155 237,152.5 237,149 C237,145.666667 233.75,143 230.5,143 C227.069444,143 224,145.666667 224,149 C224,152.5 227.069444,155 230.5,155 Z M230.5,203 C233.75,203 237,200.5 237,197 C237,193.666667 233.75,191 230.5,191 C227.069444,191 224,193.666667 224,197 C224,200.5 227.069444,203 230.5,203 Z M252,173 C252,199.384906 272.474886,219 298.155251,219 C309.780822,219 320.538813,215.007547 328,208.237736 L328,198.343396 C320.018265,206.328302 309.607306,210.841509 298.155251,210.841509 C276.639269,210.841509 260.675799,194.524528 260.675799,173 C260.675799,151.475472 276.639269,135.158491 298.155251,135.158491 C309.607306,135.158491 320.018265,139.671698 328,147.656604 L328,137.762264 C320.538813,131.166038 309.780822,127 298.155251,127 C272.474886,127 252,146.615094 252,173 Z M342,173 C342,146.615094 362.474886,127 388.155251,127 C399.780822,127 410.538813,131.166038 418,137.762264 L418,147.656604 C410.018265,139.671698 399.607306,135.158491 388.155251,135.158491 C366.639269,135.158491 350.675799,151.475472 350.675799,173 C350.675799,194.524528 366.639269,210.841509 388.155251,210.841509 C399.607306,210.841509 410.018265,206.328302 418,198.343396 L418,208.237736 C410.538813,215.007547 399.780822,219 388.155251,219 C362.474886,219 342,199.384906 342,173 Z" id=":cc" fill="#000000" fill-rule="nonzero"></path>
    </g>
</svg>