<?xml version="1.0" encoding="UTF-8"?>
<svg width="1895px" height="496px" viewBox="0 0 1895 496" version="1.1" xmlns="http://www.w3.org/2000/svg" xmlns:xlink="http://www.w3.org/1999/xlink">
    <!-- Generator: Sketch 59.1 (86144) - https://sketch.com -->
    <title>neo4j cc wordmark</title>
    <desc>Created with Sketch.</desc>
    <g id="neo4j-cc-wordmark" stroke="none" stroke-width="1" fill="none" fill-rule="evenodd">
        <g id="neo4j_logo" transform="translate(2.000000, 4.000000)">
            <g id="globe">
                <path d="M412.8,219.8 C412.8,333.8 320.4,426.2 206.4,426.2 C92.4,426.2 0,333.8 0,219.8 C0,105.8 92.4,13.399919 206.4,13.399919 C320.4,13.3 412.8,105.8 412.8,219.8" id="Path" fill="#008CC1"></path>
                <path d="M91.5,152.1 C91.5,161.2 84.1,168.6 75,168.6 C65.9,168.6 58.5,161.2 58.5,152.1 C58.5,143 65.9,135.6 75,135.6 C84.2,135.6 91.5,143 91.5,152.1" id="Path" fill="#FFFFFF"></path>
                <path d="M94.3,197.4 C94.3,206.5 86.9,213.9 77.8,213.9 C68.7,213.9 61.3,206.5 61.3,197.4 C61.3,188.3 68.7,180.9 77.8,180.9 C86.9,180.9 94.3,188.2 94.3,197.4" id="Path" fill="#FFFFFF"></path>
                <path d="M104.4,245.4 C104.4,254.5 97,261.9 87.9,261.9 C78.8,261.9 71.4,254.5 71.4,245.4 C71.4,236.3 78.8,228.9 87.9,228.9 C97,228.8 104.4,236.2 104.4,245.4" id="Path" fill="#FFFFFF"></path>
                <path d="M127,288.4 C127,297.5 119.6,304.9 110.5,304.9 C101.4,304.9 94,297.5 94,288.4 C94,279.3 101.4,271.9 110.5,271.9 C119.6,271.8 127,279.2 127,288.4" id="Path" fill="#FFFFFF"></path>
                <path d="M303.7,348.5 C303.7,357.6 296.3,365 287.2,365 C278.1,365 270.7,357.6 270.7,348.5 C270.7,339.4 278.1,332 287.2,332 C296.3,332 303.7,339.4 303.7,348.5" id="Path" fill="#FFFFFF"></path>
                <path d="M333.7,313 C333.7,322.1 326.3,329.5 317.2,329.5 C308.1,329.5 300.7,322.1 300.7,313 C300.7,303.9 308.1,296.5 317.2,296.5 C326.3,296.5 333.7,303.9 333.7,313" id="Path" fill="#FFFFFF"></path>
                <path d="M246.7,62 C246.7,71.1 239.3,78.5 230.2,78.5 C221.1,78.5 213.7,71.1 213.7,62 C213.7,52.9 221.1,45.5 230.2,45.5 C239.3,45.5 246.7,52.9 246.7,62" id="Path" fill="#FFFFFF"></path>
                <path d="M203.3,46.8 C203.3,55.9 195.9,63.3 186.8,63.3 C177.7,63.3 170.3,55.9 170.3,46.8 C170.3,37.7 177.7,30.3 186.8,30.3 C195.9,30.3 203.3,37.7 203.3,46.8" id="Path" fill="#FFFFFF"></path>
                <circle id="Oval" stroke="#FFFFFF" stroke-width="3.5" fill="#66B245" cx="320.3" cy="170.6" r="110"></circle>
                <circle id="Oval" stroke="#FFFFFF" stroke-width="3.5" fill="#66B245" cx="169.6" cy="394.9" r="90"></circle>
                <circle id="Oval" stroke="#FFFFFF" stroke-width="3.5" fill="#66B245" cx="95.5" cy="60" r="60"></circle>
            </g>
            <g id="neo4j" transform="translate(481.000000, 29.000000)" fill="#101010">
                <path d="M0,69.8 L20,69.8 L20,108.6 C29.6,85 49.6,66.6 90.4,66.6 C136.8,66.6 168,97.8 168,147 L168,271.4 L148,271.4 L148,151 C148,110.6 123.2,85.4 86,85.4 C45.6,85.4 20,116.6 20,163 L20,271.4 L0,271.4 L0,69.8 Z" id="Path"></path>
                <path d="M203.6,171 C203.6,108.2 246.4,65 302,65 C356.8,65 395.6,110.2 395.6,165.4 C395.6,165.4 395.6,171.4 395.2,175.4 L223.2,175.4 C224.4,223.8 256.8,258.2 302.8,258.2 C340.4,258.2 366.4,242.2 378.4,227 L378.4,250.6 C359.6,267.4 336.8,277 302.8,277 C244.8,277 203.6,234.6 203.6,172.2 L203.6,171 Z M374.4,157.4 C374,116.2 342,83.8 302,83.8 C260,83.8 225.6,116.2 224,157.4 L374.4,157.4 Z" id="Shape" fill-rule="nonzero"></path>
                <path d="M532.8,64.6 C592,64.6 638.8,109.8 638.8,170.6 C638.8,231.4 592,276.6 532.8,276.6 C473.6,276.6 426.8,231.4 426.8,170.6 C426.8,109.8 473.6,64.6 532.8,64.6 Z M532.8,257.8 C582,257.8 618.8,220.2 618.8,170.6 C618.8,121 582,83.4 532.8,83.4 C483.6,83.4 446.8,121 446.8,170.6 C446.8,220.2 483.6,257.8 532.8,257.8 Z" id="Shape" fill-rule="nonzero"></path>
                <polygon id="Path" points="744.4 69.8 766.8 69.8 681.2 252.2 805.6 252.2 805.6 186.2 826.4 186.2 826.4 348.6 805.6 348.6 805.6 271.4 649.6 271.4"></polygon>
                <path d="M894.8,68.8 L914.8,68.8 L914.8,298.4 C914.8,343.6 888.8,352.8 863.6,352.8 C858.8,352.8 853.6,352.4 850.4,351.6 L850.4,332.8 C855.2,333.6 860.8,334 865.6,334 C886,334 894.8,324 894.8,298.4 L894.8,68.8 Z M890.4,14.8 C890.4,6.4 897.2,0.4 904.8,0.4 C912.4,0.4 919.2,6.4 919.2,14.8 C919.2,22.8 912.4,28.8 904.8,28.8 C897.2,28.8 890.4,22.8 890.4,14.8 Z" id="Shape" fill-rule="nonzero"></path>
            </g>
        </g>
        <path d="M1449.716,162.754 C1456.898,162.754 1464.08,156.769 1464.08,148.39 C1464.08,140.41 1456.898,134.026 1449.716,134.026 C1442.135,134.026 1435.352,140.41 1435.352,148.39 C1435.352,156.769 1442.135,162.754 1449.716,162.754 Z M1449.716,272.878 C1456.898,272.878 1464.08,266.893 1464.08,258.514 C1464.08,250.534 1456.898,244.15 1449.716,244.15 C1442.135,244.15 1435.352,250.534 1435.352,258.514 C1435.352,266.893 1442.135,272.878 1449.716,272.878 Z M1499.192,203.452 C1499.192,264.1 1546.274,309.187 1605.326,309.187 C1632.059,309.187 1656.797,300.01 1673.954,284.449 L1673.954,261.706 C1655.6,280.06 1631.66,290.434 1605.326,290.434 C1555.85,290.434 1519.142,252.928 1519.142,203.452 C1519.142,153.976 1555.85,116.47 1605.326,116.47 C1631.66,116.47 1655.6,126.844 1673.954,145.198 L1673.954,122.455 C1656.797,107.293 1632.059,97.717 1605.326,97.717 C1546.274,97.717 1499.192,142.804 1499.192,203.452 Z M1704.677,203.452 C1704.677,142.804 1751.759,97.717 1810.811,97.717 C1837.544,97.717 1862.282,107.293 1879.439,122.455 L1879.439,145.198 C1861.085,126.844 1837.145,116.47 1810.811,116.47 C1761.335,116.47 1724.627,153.976 1724.627,203.452 C1724.627,252.928 1761.335,290.434 1810.811,290.434 C1837.145,290.434 1861.085,280.06 1879.439,261.706 L1879.439,284.449 C1862.282,300.01 1837.544,309.187 1810.811,309.187 C1751.759,309.187 1704.677,264.1 1704.677,203.452 Z" id=":cc" fill="#000000" fill-rule="nonzero"></path>
    </g>
</svg>