<?xml version="1.0" encoding="UTF-8"?>
<svg width="948px" height="496px" viewBox="0 0 948 496" version="1.1" xmlns="http://www.w3.org/2000/svg" xmlns:xlink="http://www.w3.org/1999/xlink">
    <!-- Generator: Sketch 59.1 (86144) - https://sketch.com -->
    <title>neo4j cc smallword</title>
    <desc>Created with Sketch.</desc>
    <g id="neo4j-cc-smallword" stroke="none" stroke-width="1" fill="none" fill-rule="evenodd">
        <g id="globe" transform="translate(2.000000, 4.000000)">
            <path d="M412.8,219.8 C412.8,333.8 320.4,426.2 206.4,426.2 C92.4,426.2 0,333.8 0,219.8 C0,105.8 92.4,13.399919 206.4,13.399919 C320.4,13.3 412.8,105.8 412.8,219.8" id="Path" fill="#008CC1"></path>
            <path d="M91.5,152.1 C91.5,161.2 84.1,168.6 75,168.6 C65.9,168.6 58.5,161.2 58.5,152.1 C58.5,143 65.9,135.6 75,135.6 C84.2,135.6 91.5,143 91.5,152.1" id="Path" fill="#FFFFFF"></path>
            <path d="M94.3,197.4 C94.3,206.5 86.9,213.9 77.8,213.9 C68.7,213.9 61.3,206.5 61.3,197.4 C61.3,188.3 68.7,180.9 77.8,180.9 C86.9,180.9 94.3,188.2 94.3,197.4" id="Path" fill="#FFFFFF"></path>
            <path d="M104.4,245.4 C104.4,254.5 97,261.9 87.9,261.9 C78.8,261.9 71.4,254.5 71.4,245.4 C71.4,236.3 78.8,228.9 87.9,228.9 C97,228.8 104.4,236.2 104.4,245.4" id="Path" fill="#FFFFFF"></path>
            <path d="M127,288.4 C127,297.5 119.6,304.9 110.5,304.9 C101.4,304.9 94,297.5 94,288.4 C94,279.3 101.4,271.9 110.5,271.9 C119.6,271.8 127,279.2 127,288.4" id="Path" fill="#FFFFFF"></path>
            <path d="M303.7,348.5 C303.7,357.6 296.3,365 287.2,365 C278.1,365 270.7,357.6 270.7,348.5 C270.7,339.4 278.1,332 287.2,332 C296.3,332 303.7,339.4 303.7,348.5" id="Path" fill="#FFFFFF"></path>
            <path d="M333.7,313 C333.7,322.1 326.3,329.5 317.2,329.5 C308.1,329.5 300.7,322.1 300.7,313 C300.7,303.9 308.1,296.5 317.2,296.5 C326.3,296.5 333.7,303.9 333.7,313" id="Path" fill="#FFFFFF"></path>
            <path d="M246.7,62 C246.7,71.1 239.3,78.5 230.2,78.5 C221.1,78.5 213.7,71.1 213.7,62 C213.7,52.9 221.1,45.5 230.2,45.5 C239.3,45.5 246.7,52.9 246.7,62" id="Path" fill="#FFFFFF"></path>
            <path d="M203.3,46.8 C203.3,55.9 195.9,63.3 186.8,63.3 C177.7,63.3 170.3,55.9 170.3,46.8 C170.3,37.7 177.7,30.3 186.8,30.3 C195.9,30.3 203.3,37.7 203.3,46.8" id="Path" fill="#FFFFFF"></path>
            <circle id="Oval" stroke="#FFFFFF" stroke-width="3.5" fill="#66B245" cx="320.3" cy="170.6" r="110"></circle>
            <circle id="Oval" stroke="#FFFFFF" stroke-width="3.5" fill="#66B245" cx="169.6" cy="394.9" r="90"></circle>
            <circle id="Oval" stroke="#FFFFFF" stroke-width="3.5" fill="#66B245" cx="95.5" cy="60" r="60"></circle>
        </g>
        <path d="M497.361186,162.892453 C504.541779,162.892453 511.722372,156.920755 511.722372,148.560377 C511.722372,140.598113 504.541779,134.228302 497.361186,134.228302 C489.781671,134.228302 483,140.598113 483,148.560377 C483,156.920755 489.781671,162.892453 497.361186,162.892453 Z M497.361186,272.771698 C504.541779,272.771698 511.722372,266.8 511.722372,258.439623 C511.722372,250.477358 504.541779,244.107547 497.361186,244.107547 C489.781671,244.107547 483,250.477358 483,258.439623 C483,266.8 489.781671,272.771698 497.361186,272.771698 Z M546.827493,203.5 C546.827493,264.013208 593.90027,309 652.940701,309 C679.668464,309 704.401617,299.843396 721.555256,284.316981 L721.555256,261.624528 C703.204852,279.937736 679.269542,290.288679 652.940701,290.288679 C603.474394,290.288679 566.773585,252.866038 566.773585,203.5 C566.773585,154.133962 603.474394,116.711321 652.940701,116.711321 C679.269542,116.711321 703.204852,127.062264 721.555256,145.375472 L721.555256,122.683019 C704.401617,107.554717 679.668464,98 652.940701,98 C593.90027,98 546.827493,142.986792 546.827493,203.5 Z M752.272237,203.5 C752.272237,142.986792 799.345013,98 858.385445,98 C885.113208,98 909.846361,107.554717 927,122.683019 L927,145.375472 C908.649596,127.062264 884.714286,116.711321 858.385445,116.711321 C808.919137,116.711321 772.218329,154.133962 772.218329,203.5 C772.218329,252.866038 808.919137,290.288679 858.385445,290.288679 C884.714286,290.288679 908.649596,279.937736 927,261.624528 L927,284.316981 C909.846361,299.843396 885.113208,309 858.385445,309 C799.345013,309 752.272237,264.013208 752.272237,203.5 Z" id=":cc" fill="#000000" fill-rule="nonzero"></path>
    </g>
</svg>